%
M48
M72
T01C0.02362
T02C0.03150
T03C0.03200
T04C0.03937
T05C0.04000
T06C0.07480
%
T01
X31800Y74800
X36800Y161800
X45800Y168800
X54800Y166800
X31209Y176918
X80934Y194517
X143800Y176800
X171800Y151800
X173800Y140800
X143800Y126800
X174800Y96800
X183800Y193800
T02
X39123Y200698
X43847Y203847
X43847Y197548
X39123Y194398
X43847Y191249
X65162Y207343
X73036Y207343
X80910Y207343
X68800Y101800
X68800Y91800
X68800Y81800
T03
X10800Y54800
X20800Y54800
X20493Y71619
X10493Y71619
X43800Y69800
X55800Y69800
X67800Y69800
X79800Y56800
X79800Y46800
X91957Y46745
X91957Y56745
X91957Y66745
X91957Y76745
X91957Y86745
X91957Y96745
X91957Y106745
X91957Y116745
X91957Y126745
X91957Y136745
X91957Y146745
X91957Y156745
X91957Y166745
X91957Y176745
X100800Y204800
X105800Y212300
X110800Y204800
X126800Y202800
X126800Y212800
X151800Y212800
X135800Y176800
X135800Y166800
X121957Y166745
X121957Y156745
X121957Y146745
X121957Y136745
X121957Y126745
X121957Y116745
X121957Y106745
X121957Y96745
X121957Y86745
X121957Y76745
X121957Y66745
X121957Y56745
X121957Y46745
X121800Y36800
X121800Y26800
X133800Y26800
X133800Y36800
X138800Y96800
X138800Y106800
X151800Y172800
X121957Y176745
X67800Y29800
X55800Y29800
X43800Y29800
T04
X14957Y34800
X34643Y34800
X57288Y207343
X88784Y207343
X164083Y208351
X183769Y208351
T05
X11800Y156800
X11800Y146800
X11800Y136800
X11800Y126800
X11800Y116800
X11800Y106800
X11800Y96800
X11800Y86800
X199300Y86800
X199300Y96800
X199300Y106800
X199300Y116800
X199300Y126800
X199300Y136800
X199300Y146800
X199300Y156800
X199280Y168233
X199280Y178233
X199280Y188233
X199280Y198233
X199280Y208233
T06
X23769Y211918
X23769Y183178
M30
