G75*
%MOIN*%
%OFA0B0*%
%FSLAX25Y25*%
%IPPOS*%
%LPD*%
%AMOC8*
5,1,8,0,0,1.08239X$1,22.5*
%
%ADD10C,0.00000*%
%ADD11C,0.00700*%
%ADD12C,0.00400*%
%ADD13C,0.00500*%
D10*
X0006800Y0021800D02*
X0006800Y0218650D01*
X0203650Y0218650D01*
X0203650Y0021800D01*
X0006800Y0021800D01*
D11*
X0022406Y0083150D02*
X0021355Y0084201D01*
X0021355Y0088404D01*
X0022406Y0089455D01*
X0025559Y0089455D01*
X0025559Y0083150D01*
X0022406Y0083150D01*
X0027801Y0083150D02*
X0027801Y0089455D01*
X0027731Y0093150D02*
X0025629Y0093150D01*
X0024578Y0094201D01*
X0024578Y0095252D01*
X0025629Y0096303D01*
X0026680Y0096303D01*
X0025629Y0096303D02*
X0024578Y0097354D01*
X0024578Y0098404D01*
X0025629Y0099455D01*
X0027731Y0099455D01*
X0028782Y0098404D01*
X0028782Y0094201D02*
X0027731Y0093150D01*
X0030954Y0093150D02*
X0032005Y0093150D01*
X0032005Y0094201D01*
X0030954Y0094201D01*
X0030954Y0093150D01*
X0034246Y0094201D02*
X0035297Y0093150D01*
X0037399Y0093150D01*
X0038450Y0094201D01*
X0036348Y0096303D02*
X0035297Y0096303D01*
X0034246Y0095252D01*
X0034246Y0094201D01*
X0035297Y0096303D02*
X0034246Y0097354D01*
X0034246Y0098404D01*
X0035297Y0099455D01*
X0037399Y0099455D01*
X0038450Y0098404D01*
X0037399Y0089455D02*
X0035297Y0089455D01*
X0034246Y0088404D01*
X0034246Y0086303D02*
X0036348Y0086303D01*
X0034246Y0086303D02*
X0034246Y0084201D01*
X0035297Y0083150D01*
X0037399Y0083150D01*
X0038450Y0084201D01*
X0038450Y0088404D01*
X0037399Y0089455D01*
X0032005Y0089455D02*
X0032005Y0083150D01*
X0027801Y0083150D02*
X0032005Y0089455D01*
X0022336Y0095252D02*
X0022336Y0099455D01*
X0020852Y0103150D02*
X0020852Y0109455D01*
X0024005Y0106303D01*
X0019801Y0106303D01*
X0026246Y0106303D02*
X0030450Y0106303D01*
X0030450Y0107354D02*
X0028348Y0109455D01*
X0026246Y0107354D01*
X0026246Y0103150D01*
X0030450Y0103150D02*
X0030450Y0107354D01*
X0030450Y0113150D02*
X0027297Y0113150D01*
X0026246Y0114201D01*
X0026246Y0115252D01*
X0027297Y0116303D01*
X0030450Y0116303D01*
X0030450Y0119455D02*
X0030450Y0113150D01*
X0027297Y0116303D02*
X0026246Y0117354D01*
X0026246Y0118404D01*
X0027297Y0119455D01*
X0030450Y0119455D01*
X0030450Y0123150D02*
X0027297Y0123150D01*
X0026246Y0124201D01*
X0026246Y0125252D01*
X0027297Y0126303D01*
X0030450Y0126303D01*
X0030450Y0129455D02*
X0027297Y0129455D01*
X0026246Y0128404D01*
X0026246Y0127354D01*
X0027297Y0126303D01*
X0024005Y0128404D02*
X0022954Y0129455D01*
X0020852Y0129455D01*
X0019801Y0128404D01*
X0019801Y0127354D01*
X0020852Y0126303D01*
X0019801Y0125252D01*
X0019801Y0124201D01*
X0020852Y0123150D01*
X0022954Y0123150D01*
X0024005Y0124201D01*
X0021903Y0126303D02*
X0020852Y0126303D01*
X0020852Y0119455D02*
X0024005Y0116303D01*
X0019801Y0116303D01*
X0020852Y0119455D02*
X0020852Y0113150D01*
X0030450Y0123150D02*
X0030450Y0129455D01*
X0030450Y0133150D02*
X0027297Y0133150D01*
X0026246Y0134201D01*
X0026246Y0135252D01*
X0027297Y0136303D01*
X0030450Y0136303D01*
X0030450Y0139455D02*
X0027297Y0139455D01*
X0026246Y0138404D01*
X0026246Y0137354D01*
X0027297Y0136303D01*
X0024005Y0138404D02*
X0022954Y0139455D01*
X0020852Y0139455D01*
X0019801Y0138404D01*
X0019801Y0137354D01*
X0024005Y0133150D01*
X0019801Y0133150D01*
X0018801Y0143150D02*
X0023005Y0143150D01*
X0020903Y0143150D02*
X0020903Y0149455D01*
X0023005Y0147354D01*
X0025246Y0147354D02*
X0025246Y0143150D01*
X0025246Y0146303D02*
X0029450Y0146303D01*
X0029450Y0147354D02*
X0029450Y0143150D01*
X0030450Y0139455D02*
X0030450Y0133150D01*
X0029450Y0147354D02*
X0027348Y0149455D01*
X0025246Y0147354D01*
X0025246Y0153150D02*
X0025246Y0157354D01*
X0027348Y0159455D01*
X0029450Y0157354D01*
X0029450Y0153150D01*
X0029450Y0156303D02*
X0025246Y0156303D01*
X0023005Y0158404D02*
X0023005Y0154201D01*
X0018801Y0158404D01*
X0018801Y0154201D01*
X0019852Y0153150D01*
X0021954Y0153150D01*
X0023005Y0154201D01*
X0023005Y0158404D02*
X0021954Y0159455D01*
X0019852Y0159455D01*
X0018801Y0158404D01*
X0018133Y0099455D02*
X0018133Y0095252D01*
X0020234Y0093150D01*
X0022336Y0095252D01*
X0174355Y0089404D02*
X0174355Y0085201D01*
X0175406Y0084150D01*
X0178559Y0084150D01*
X0178559Y0090455D01*
X0175406Y0090455D01*
X0174355Y0089404D01*
X0180801Y0090455D02*
X0180801Y0084150D01*
X0185005Y0090455D01*
X0185005Y0084150D01*
X0187246Y0085201D02*
X0187246Y0087303D01*
X0189348Y0087303D01*
X0187246Y0089404D02*
X0188297Y0090455D01*
X0190399Y0090455D01*
X0191450Y0089404D01*
X0191450Y0085201D01*
X0190399Y0084150D01*
X0188297Y0084150D01*
X0187246Y0085201D01*
X0188297Y0094150D02*
X0190399Y0094150D01*
X0191450Y0095201D01*
X0191450Y0097303D02*
X0189348Y0098354D01*
X0188297Y0098354D01*
X0187246Y0097303D01*
X0187246Y0095201D01*
X0188297Y0094150D01*
X0185005Y0096252D02*
X0182903Y0094150D01*
X0180801Y0096252D01*
X0180801Y0100455D01*
X0185005Y0100455D02*
X0185005Y0096252D01*
X0187246Y0100455D02*
X0191450Y0100455D01*
X0191450Y0097303D01*
X0191450Y0104150D02*
X0188297Y0104150D01*
X0187246Y0105201D01*
X0187246Y0106252D01*
X0188297Y0107303D01*
X0191450Y0107303D01*
X0191450Y0110455D02*
X0191450Y0104150D01*
X0188297Y0107303D02*
X0187246Y0108354D01*
X0187246Y0109404D01*
X0188297Y0110455D01*
X0191450Y0110455D01*
X0191450Y0114150D02*
X0188297Y0114150D01*
X0187246Y0115201D01*
X0187246Y0116252D01*
X0188297Y0117303D01*
X0191450Y0117303D01*
X0191450Y0120455D02*
X0188297Y0120455D01*
X0187246Y0119404D01*
X0187246Y0118354D01*
X0188297Y0117303D01*
X0185005Y0118354D02*
X0185005Y0119404D01*
X0183954Y0120455D01*
X0181852Y0120455D01*
X0180801Y0119404D01*
X0180801Y0118354D01*
X0181852Y0117303D01*
X0183954Y0117303D01*
X0185005Y0118354D01*
X0183954Y0117303D02*
X0185005Y0116252D01*
X0185005Y0115201D01*
X0183954Y0114150D01*
X0181852Y0114150D01*
X0180801Y0115201D01*
X0180801Y0116252D01*
X0181852Y0117303D01*
X0181852Y0124150D02*
X0180801Y0125201D01*
X0180801Y0129404D01*
X0181852Y0130455D01*
X0183954Y0130455D01*
X0185005Y0129404D01*
X0185005Y0128354D01*
X0183954Y0127303D01*
X0180801Y0127303D01*
X0181852Y0124150D02*
X0183954Y0124150D01*
X0185005Y0125201D01*
X0187246Y0125201D02*
X0187246Y0126252D01*
X0188297Y0127303D01*
X0191450Y0127303D01*
X0191450Y0130455D02*
X0191450Y0124150D01*
X0188297Y0124150D01*
X0187246Y0125201D01*
X0188297Y0127303D02*
X0187246Y0128354D01*
X0187246Y0129404D01*
X0188297Y0130455D01*
X0191450Y0130455D01*
X0191450Y0134150D02*
X0188297Y0134150D01*
X0187246Y0135201D01*
X0187246Y0136252D01*
X0188297Y0137303D01*
X0191450Y0137303D01*
X0191450Y0140455D02*
X0191450Y0134150D01*
X0188297Y0137303D02*
X0187246Y0138354D01*
X0187246Y0139404D01*
X0188297Y0140455D01*
X0191450Y0140455D01*
X0191450Y0144150D02*
X0188297Y0144150D01*
X0187246Y0145201D01*
X0187246Y0146252D01*
X0188297Y0147303D01*
X0191450Y0147303D01*
X0191450Y0150455D02*
X0188297Y0150455D01*
X0187246Y0149404D01*
X0187246Y0148354D01*
X0188297Y0147303D01*
X0185005Y0148354D02*
X0182903Y0150455D01*
X0182903Y0144150D01*
X0185005Y0144150D02*
X0180801Y0144150D01*
X0182903Y0140455D02*
X0182903Y0134150D01*
X0185005Y0134150D02*
X0180801Y0134150D01*
X0178559Y0135201D02*
X0177508Y0134150D01*
X0175406Y0134150D01*
X0174355Y0135201D01*
X0174355Y0136252D01*
X0175406Y0137303D01*
X0176457Y0137303D01*
X0175406Y0137303D02*
X0174355Y0138354D01*
X0174355Y0139404D01*
X0175406Y0140455D01*
X0177508Y0140455D01*
X0178559Y0139404D01*
X0182903Y0140455D02*
X0185005Y0138354D01*
X0191450Y0144150D02*
X0191450Y0150455D01*
X0191450Y0155150D02*
X0188297Y0155150D01*
X0187246Y0156201D01*
X0187246Y0157252D01*
X0188297Y0158303D01*
X0191450Y0158303D01*
X0191450Y0161455D02*
X0188297Y0161455D01*
X0187246Y0160404D01*
X0187246Y0159354D01*
X0188297Y0158303D01*
X0185005Y0159354D02*
X0182903Y0161455D01*
X0182903Y0155150D01*
X0185005Y0155150D02*
X0180801Y0155150D01*
X0178559Y0156201D02*
X0177508Y0155150D01*
X0175406Y0155150D01*
X0174355Y0156201D01*
X0174355Y0158303D01*
X0175406Y0159354D01*
X0176457Y0159354D01*
X0178559Y0158303D01*
X0178559Y0161455D01*
X0174355Y0161455D01*
X0175406Y0150455D02*
X0178559Y0147303D01*
X0174355Y0147303D01*
X0175406Y0150455D02*
X0175406Y0144150D01*
X0191450Y0155150D02*
X0191450Y0161455D01*
X0191450Y0120455D02*
X0191450Y0114150D01*
X0185005Y0110455D02*
X0180801Y0110455D01*
X0180801Y0109404D01*
X0185005Y0105201D01*
X0185005Y0104150D01*
D12*
X0184788Y0038104D02*
X0181719Y0038104D01*
X0180184Y0038104D02*
X0177115Y0033500D01*
X0177115Y0038104D01*
X0175580Y0037337D02*
X0175580Y0034267D01*
X0174813Y0033500D01*
X0173278Y0033500D01*
X0172511Y0034267D01*
X0170976Y0033500D02*
X0167907Y0033500D01*
X0169442Y0035802D02*
X0170976Y0035802D01*
X0172511Y0037337D02*
X0173278Y0038104D01*
X0174813Y0038104D01*
X0175580Y0037337D01*
X0170976Y0038104D02*
X0170976Y0033500D01*
X0173278Y0030604D02*
X0172511Y0029837D01*
X0172511Y0029069D01*
X0173278Y0028302D01*
X0172511Y0027535D01*
X0172511Y0026767D01*
X0173278Y0026000D01*
X0174813Y0026000D01*
X0175580Y0026767D01*
X0177115Y0026767D02*
X0177115Y0027535D01*
X0177882Y0028302D01*
X0178650Y0028302D01*
X0177882Y0028302D02*
X0177115Y0029069D01*
X0177115Y0029837D01*
X0177882Y0030604D01*
X0179417Y0030604D01*
X0180184Y0029837D01*
X0181719Y0028302D02*
X0184788Y0028302D01*
X0182486Y0030604D01*
X0182486Y0026000D01*
X0180184Y0026767D02*
X0179417Y0026000D01*
X0177882Y0026000D01*
X0177115Y0026767D01*
X0174046Y0028302D02*
X0173278Y0028302D01*
X0173278Y0030604D02*
X0174813Y0030604D01*
X0175580Y0029837D01*
X0180184Y0033500D02*
X0180184Y0038104D01*
X0183254Y0035802D02*
X0184788Y0035802D01*
X0186323Y0035802D02*
X0186323Y0037337D01*
X0187090Y0038104D01*
X0189392Y0038104D01*
X0189392Y0033500D01*
X0189392Y0035035D02*
X0187090Y0035035D01*
X0186323Y0035802D01*
X0187858Y0035035D02*
X0186323Y0033500D01*
X0184788Y0033500D02*
X0181719Y0033500D01*
X0184788Y0033500D02*
X0184788Y0038104D01*
X0190927Y0038104D02*
X0193996Y0038104D01*
X0193996Y0033500D01*
X0190927Y0033500D01*
X0192461Y0035802D02*
X0193996Y0035802D01*
X0195531Y0038104D02*
X0198600Y0038104D01*
X0197065Y0038104D02*
X0197065Y0033500D01*
X0195531Y0030604D02*
X0195531Y0026000D01*
X0193996Y0026000D02*
X0190927Y0026000D01*
X0192461Y0028302D02*
X0193996Y0028302D01*
X0193996Y0030604D02*
X0193996Y0026000D01*
X0197065Y0029069D02*
X0195531Y0030604D01*
X0193996Y0030604D02*
X0190927Y0030604D01*
X0197065Y0029069D02*
X0198600Y0030604D01*
X0198600Y0026000D01*
X0170976Y0038104D02*
X0167907Y0038104D01*
X0161769Y0037337D02*
X0161769Y0034267D01*
X0161001Y0033500D01*
X0159467Y0033500D01*
X0158699Y0034267D01*
X0157165Y0033500D02*
X0157165Y0038104D01*
X0158699Y0037337D02*
X0159467Y0038104D01*
X0161001Y0038104D01*
X0161769Y0037337D01*
X0157165Y0035802D02*
X0154095Y0035802D01*
X0152561Y0035802D02*
X0149491Y0035802D01*
X0149491Y0036569D02*
X0149491Y0033500D01*
X0147957Y0033500D02*
X0147957Y0038104D01*
X0144888Y0033500D01*
X0144888Y0038104D01*
X0149491Y0036569D02*
X0151026Y0038104D01*
X0152561Y0036569D01*
X0152561Y0033500D01*
X0154095Y0033500D02*
X0154095Y0038104D01*
D13*
X0044438Y0182194D02*
X0009005Y0182194D01*
X0009005Y0212902D01*
X0044438Y0212902D01*
X0044438Y0182194D01*
X0030658Y0194595D02*
X0010973Y0192627D01*
X0010973Y0189674D02*
X0028690Y0191643D01*
X0030658Y0194595D02*
X0030658Y0200501D01*
X0010973Y0202469D01*
X0010973Y0205422D02*
X0026721Y0203454D01*
X0026721Y0211328D02*
X0010973Y0209359D01*
X0010973Y0205422D01*
X0010973Y0189674D02*
X0010973Y0185737D01*
X0028690Y0183769D01*
M02*
